Coordinates
version=1
nRows=6
nColumns=34
inDegrees=yes

Units are S.I. units (second, meters, Newtons, ...)
If the header above contains a line with 'inDegrees', this indicates whether rotational values are in degrees (yes) or radians (no).

endheader
time	pelvis_tilt	pelvis_list	pelvis_rotation	pelvis_tx	pelvis_ty	pelvis_tz	hip_flexion_r	hip_adduction_r	hip_rotation_r	knee_angle_r	ankle_angle_r	subtalar_angle_r	mtp_angle_r	hip_flexion_l	hip_adduction_l	hip_rotation_l	knee_angle_l	ankle_angle_l	subtalar_angle_l	mtp_angle_l	lumbar_extension	lumbar_bending	lumbar_rotation	arm_flex_r	arm_add_r	arm_rot_r	elbow_flex_r	pro_sup_r	arm_flex_l	arm_add_l	arm_rot_l	elbow_flex_l	pro_sup_l
      2.90000000	     -2.84331294	      1.60227367	      1.79586709	      0.00234591	      1.20941003	     -0.08696388	     -2.10764993	     -1.86371570	     -5.19985033	      3.63789017	     16.66789600	      2.39023331	      0.00000000	     -0.01797870	     -0.36956968	     -8.04854265	      5.54628088	     12.48427011	     -1.68028372	      0.00000000	      2.50577198	     -0.08114822	     -1.94347397	      0.41333697	     -8.24884455	     19.35756120	     27.22730193	     69.04674710	     -0.27819235	    -10.25660519	     26.80930075	     23.89924604	     74.43917318
      2.91666670	     -2.84516208	      1.61052161	      1.79165669	      0.00224409	      1.21217288	     -0.08622198	     -2.08207335	     -1.85493819	     -5.20056246	      3.62803910	     16.67496629	      2.38904688	      0.00000000	     -0.03647075	     -0.37020532	     -8.05329403	      5.55733979	     12.49075927	     -1.68459897	      0.00000000	      2.50812013	     -0.08269909	     -1.94611068	      0.41405173	     -8.24986053	     19.35545759	     27.23122757	     69.04549549	     -0.28300768	    -10.26384428	     26.80956927	     23.90132121	     74.43929465
      2.93333330	     -2.84758649	      1.61329831	      1.79427629	      0.00216278	      1.21271273	     -0.08643509	     -2.05634618	     -1.85440982	     -5.20108984	      3.61636391	     16.67939563	      2.38824051	      0.00000000	     -0.06262885	     -0.37691754	     -8.05882145	      5.57181948	     12.49337103	     -1.68826632	      0.00000000	      2.51001957	     -0.08639654	     -1.94449453	      0.41885848	     -8.24934815	     19.35371276	     27.23581337	     69.04456591	     -0.28846979	    -10.27394580	     26.80937577	     23.90115421	     74.43931900
      2.95000000	     -2.84550591	      1.60960137	      1.79871209	      0.00265838	      1.21344393	     -0.08677100	     -2.03074988	     -1.85567801	     -5.20219431	      3.60369297	     16.68183261	      2.38742011	      0.00000000	     -0.08276940	     -0.37578301	     -8.06426403	      5.58459048	     12.49462145	     -1.69151154	      0.00000000	      2.51025492	     -0.08868471	     -1.94188660	      0.42394788	     -8.24841451	     19.35238027	     27.23975817	     69.04388528	     -0.29349308	    -10.28353438	     26.80906822	     23.89999495	     74.43930959
      2.96666670	     -2.82600170	      1.60620071	      1.81051178	      0.00208805	      1.21345077	     -0.08621856	     -1.98964388	     -1.86644724	     -5.20506519	      3.57771151	     16.68380677	      2.38623447	      0.00000000	     -0.10179744	     -0.37931641	     -8.07343181	      5.59171984	     12.49616777	     -1.69686660	      0.00000000	      2.51022400	     -0.08848794	     -1.93864410	      0.42895477	     -8.24857602	     19.35066376	     27.24414573	     69.04303946	     -0.30142065	    -10.29569784	     26.80879846	     23.89765518	     74.43931552
      2.98333330	     -2.87532734	      1.61891757	      1.80499276	      0.00245539	      1.21270788	     -0.08577757	     -1.92325553	     -1.88152590	     -5.24767462	      3.44402428	     16.67694518	      2.37916785	      0.00000000	     -0.05976155	     -0.37531342	     -8.21335534	      5.54730388	     12.51213392	     -1.77412245	      0.00000000	      2.45654697	     -0.09869424	     -1.90104079	      0.52139208	     -8.23944952	     19.32624865	     27.31146588	     69.03108510	     -0.37668536	    -10.49596458	     26.80042321	     23.86070149	     74.43899935
